<svg width="39" height="33" viewBox="0 0 39 33" fill="none" xmlns="http://www.w3.org/2000/svg">
<path d="M38.8014 16.6771C38.8014 16.0446 38.5361 15.4325 38.0669 14.9836L24.662 1.57875C24.1315 1.06867 23.5806 0.844238 23.0093 0.844238C21.7035 0.844238 20.765 1.76238 20.765 3.00698C20.765 3.65988 21.0302 4.21076 21.4383 4.61883L26.029 9.27075L31.9459 14.6776L27.2124 14.392H2.48372C1.11671 14.392 0.178162 15.3305 0.178162 16.6771C0.178162 18.0033 1.11671 18.9419 2.48372 18.9419H27.2124L31.9459 18.6562L26.029 24.0631L21.4383 28.715C21.0302 29.123 20.765 29.6739 20.765 30.3268C20.765 31.5714 21.7035 32.4896 23.0093 32.4896C23.5806 32.4896 24.1315 32.2651 24.6212 31.7959L38.0669 18.3502C38.5361 17.9013 38.8014 17.2892 38.8014 16.6771Z" fill="#F2F2F2"/>
</svg>
