<svg width="20" height="19" viewBox="0 0 20 19" fill="none" xmlns="http://www.w3.org/2000/svg">
<path d="M10 18.7422C14.9658 18.7422 19.0791 14.6377 19.0791 9.66309C19.0791 4.69727 14.9658 0.583984 9.99121 0.583984C5.02539 0.583984 0.920898 4.69727 0.920898 9.66309C0.920898 14.6377 5.03418 18.7422 10 18.7422ZM10 3.98535C10.3252 3.98535 10.5977 4.25781 10.5977 4.5918V5.61133C10.5977 5.92773 10.3252 6.20898 10 6.20898C9.6748 6.20898 9.40234 5.92773 9.40234 5.61133V4.5918C9.40234 4.25781 9.6748 3.98535 10 3.98535ZM14.0166 5.64648C14.2451 5.875 14.2451 6.26172 14.0166 6.49023L13.2783 7.22852C13.0498 7.46582 12.6631 7.46582 12.4346 7.22852C12.2061 7.00879 12.1973 6.63086 12.4346 6.39355L13.1641 5.64648C13.3926 5.41797 13.7705 5.40918 14.0166 5.64648ZM5.99219 5.64648C6.22949 5.41797 6.61621 5.42676 6.83594 5.64648L7.57422 6.39355C7.79395 6.61328 7.79395 7 7.56543 7.22852C7.32812 7.46582 6.9502 7.46582 6.72168 7.22852L5.9834 6.49023C5.75488 6.26172 5.77246 5.875 5.99219 5.64648ZM10 12.3701C8.52344 12.3701 7.29297 11.1309 7.29297 9.6543C7.29297 8.18652 8.52344 6.94727 10 6.94727C11.4766 6.94727 12.6982 8.18652 12.6982 9.6543C12.6982 11.1309 11.4766 12.3701 10 12.3701ZM15.6689 9.6543C15.6689 9.98828 15.3965 10.2607 15.0625 10.2607H14.043C13.7266 10.2607 13.4453 9.97949 13.4453 9.6543C13.4453 9.33789 13.7266 9.05664 14.043 9.05664H15.0625C15.3965 9.05664 15.6689 9.3291 15.6689 9.6543ZM4.33984 9.6543C4.33984 9.3291 4.6123 9.05664 4.9375 9.05664H5.95703C6.28223 9.05664 6.55469 9.33789 6.55469 9.6543C6.55469 9.97949 6.28223 10.2607 5.95703 10.2607H4.9375C4.6123 10.2607 4.33984 9.98828 4.33984 9.6543ZM5.9834 13.6621C5.75488 13.4336 5.75488 13.0469 5.9834 12.8184L6.72168 12.0889C6.94141 11.8604 7.33691 11.8604 7.57422 12.0889C7.80273 12.3262 7.79395 12.7129 7.56543 12.9414L6.82715 13.6709C6.59863 13.8994 6.2207 13.8906 5.9834 13.6621ZM14.0166 13.6709C13.7793 13.8906 13.4014 13.8994 13.1729 13.6709L12.4346 12.9326C12.1973 12.7129 12.1973 12.3262 12.4346 12.0889C12.6631 11.8604 13.0498 11.8604 13.2695 12.0889L14.0166 12.8184C14.2451 13.0469 14.2539 13.4248 14.0166 13.6709ZM10 15.332C9.6748 15.332 9.40234 15.0596 9.40234 14.7256V13.7061C9.40234 13.3896 9.6748 13.1084 10 13.1084C10.3252 13.1084 10.5977 13.3896 10.5977 13.7061V14.7256C10.5977 15.0596 10.3252 15.332 10 15.332Z" fill="#F2F2F2"/>
</svg>
